<?xml version="1.0" encoding="UTF-8" standalone="no"?>
<svg
   width="32px"
   height="32px"
   viewBox="0 0 32 32"
   version="1.1"
   id="svg15"
   sodipodi:docname="xyz.svg"
   inkscape:version="1.2.2 (b0a8486541, 2022-12-01)"
   xmlns:inkscape="http://www.inkscape.org/namespaces/inkscape"
   xmlns:sodipodi="http://sodipodi.sourceforge.net/DTD/sodipodi-0.dtd"
   xmlns="http://www.w3.org/2000/svg"
   xmlns:svg="http://www.w3.org/2000/svg">
  <sodipodi:namedview
     id="namedview17"
     pagecolor="#ffffff"
     bordercolor="#000000"
     borderopacity="0.25"
     inkscape:showpageshadow="2"
     inkscape:pageopacity="0.0"
     inkscape:pagecheckerboard="0"
     inkscape:deskcolor="#d1d1d1"
     showgrid="false"
     inkscape:zoom="7.375"
     inkscape:cx="6.5762712"
     inkscape:cy="16"
     inkscape:window-width="1366"
     inkscape:window-height="691"
     inkscape:window-x="0"
     inkscape:window-y="0"
     inkscape:window-maximized="1"
     inkscape:current-layer="svg15" />
  <defs
     id="defs7">
    <linearGradient
       id="a"
       x1="28.841"
       y1="29.545"
       x2="3.828"
       y2="3.161"
       gradientUnits="userSpaceOnUse">
      <stop
         offset="0"
         stop-color="#b42025"
         id="stop2" />
      <stop
         offset="1"
         stop-color="#d42027"
         id="stop4" />
    </linearGradient>
  </defs>
  <title
     id="title9">file_type_flash</title>
  <rect
     x="2"
     y="2.328"
     width="28"
     height="27.344"
     style="fill:#ff6600"
     id="rect11" />
  <path
     d="M21.56,10.892a4.655,4.655,0,0,1,1.546-.243V7.122a7.439,7.439,0,0,0-6.115,2.884,11.422,11.422,0,0,0-1.529,2.571l-1.147,2.8a23.24,23.24,0,0,1-1.025,2.519,9.844,9.844,0,0,1-1.06,1.876,4.02,4.02,0,0,1-1.39,1.147,4.525,4.525,0,0,1-1.946.4v3.561a7.487,7.487,0,0,0,6.115-2.884,13.442,13.442,0,0,0,1.251-2.015l.973-2.224h4.082V14.211H18.623a11.3,11.3,0,0,1,.8-1.529,4.6,4.6,0,0,1,.938-1.095,3.613,3.613,0,0,1,1.2-.695Z"
     style="fill:#fff;fill-rule:evenodd"
     id="path13" />
</svg>
